<?xml version="1.0" encoding="UTF-8" standalone="no"?>
<!DOCTYPE svg PUBLIC "-//W3C//DTD SVG 1.1//EN"
 "http://www.w3.org/Graphics/SVG/1.1/DTD/svg11.dtd">
<!-- Generated by graphviz version 7.1.0 (20230121.1956)
 -->
<!-- Title: snakemake_dag Pages: 1 -->
<svg width="451pt" height="836pt"
 viewBox="0.00 0.00 450.50 836.00" xmlns="http://www.w3.org/2000/svg" xmlns:xlink="http://www.w3.org/1999/xlink">
<g id="graph0" class="graph" transform="scale(1 1) rotate(0) translate(4 832)">
<title>snakemake_dag</title>
<polygon fill="white" stroke="none" points="-4,4 -4,-832 446.5,-832 446.5,4 -4,4"/>
<!-- 0 -->
<g id="node1" class="node">
<title>0</title>
<path fill="none" stroke="#9fd856" stroke-width="2" d="M303,-36C303,-36 273,-36 273,-36 267,-36 261,-30 261,-24 261,-24 261,-12 261,-12 261,-6 267,0 273,0 273,0 303,0 303,0 309,0 315,-6 315,-12 315,-12 315,-24 315,-24 315,-30 309,-36 303,-36"/>
<text text-anchor="middle" x="288" y="-15.5" font-family="sans" font-size="10.00">all</text>
</g>
<!-- 1 -->
<g id="node2" class="node">
<title>1</title>
<path fill="none" stroke="#56d0d8" stroke-width="2" d="M160,-180C160,-180 130,-180 130,-180 124,-180 118,-174 118,-168 118,-168 118,-156 118,-156 118,-150 124,-144 130,-144 130,-144 160,-144 160,-144 166,-144 172,-150 172,-156 172,-156 172,-168 172,-168 172,-174 166,-180 160,-180"/>
<text text-anchor="middle" x="145" y="-159.5" font-family="sans" font-size="10.00">multiqc</text>
</g>
<!-- 1&#45;&gt;0 -->
<g id="edge1" class="edge">
<title>1&#45;&gt;0</title>
<path fill="none" stroke="grey" stroke-width="2" d="M155.65,-143.27C167.6,-124.27 188.3,-93.91 211,-72 222.58,-60.82 236.76,-50.34 249.77,-41.7"/>
<polygon fill="grey" stroke="grey" stroke-width="2" points="251.28,-44.89 257.8,-36.54 247.49,-39.01 251.28,-44.89"/>
</g>
<!-- 2 -->
<g id="node3" class="node">
<title>2</title>
<path fill="none" stroke="#5692d8" stroke-width="2" d="M42,-252C42,-252 12,-252 12,-252 6,-252 0,-246 0,-240 0,-240 0,-228 0,-228 0,-222 6,-216 12,-216 12,-216 42,-216 42,-216 48,-216 54,-222 54,-228 54,-228 54,-240 54,-240 54,-246 48,-252 42,-252"/>
<text text-anchor="middle" x="27" y="-231.5" font-family="sans" font-size="10.00">fastqc</text>
</g>
<!-- 2&#45;&gt;1 -->
<g id="edge6" class="edge">
<title>2&#45;&gt;1</title>
<path fill="none" stroke="grey" stroke-width="2" d="M54.96,-216.41C70.25,-207.34 89.41,-195.97 106.13,-186.06"/>
<polygon fill="grey" stroke="grey" stroke-width="2" points="107.82,-189.13 114.63,-181.01 104.25,-183.11 107.82,-189.13"/>
</g>
<!-- 3 -->
<g id="node4" class="node">
<title>3</title>
<path fill="none" stroke="#5673d8" stroke-width="2" d="M114,-252C114,-252 84,-252 84,-252 78,-252 72,-246 72,-240 72,-240 72,-228 72,-228 72,-222 78,-216 84,-216 84,-216 114,-216 114,-216 120,-216 126,-222 126,-228 126,-228 126,-240 126,-240 126,-246 120,-252 114,-252"/>
<text text-anchor="middle" x="99" y="-231.5" font-family="sans" font-size="10.00">flagstat</text>
</g>
<!-- 3&#45;&gt;1 -->
<g id="edge7" class="edge">
<title>3&#45;&gt;1</title>
<path fill="none" stroke="grey" stroke-width="2" d="M110.61,-215.34C115.31,-208.18 120.87,-199.73 126.12,-191.73"/>
<polygon fill="grey" stroke="grey" stroke-width="2" points="129.01,-193.71 131.57,-183.43 123.16,-189.87 129.01,-193.71"/>
</g>
<!-- 4 -->
<g id="node5" class="node">
<title>4</title>
<path fill="none" stroke="#88d856" stroke-width="2" d="M289.5,-324C289.5,-324 242.5,-324 242.5,-324 236.5,-324 230.5,-318 230.5,-312 230.5,-312 230.5,-300 230.5,-300 230.5,-294 236.5,-288 242.5,-288 242.5,-288 289.5,-288 289.5,-288 295.5,-288 301.5,-294 301.5,-300 301.5,-300 301.5,-312 301.5,-312 301.5,-318 295.5,-324 289.5,-324"/>
<text text-anchor="middle" x="266" y="-303.5" font-family="sans" font-size="10.00">re_sort_bam</text>
</g>
<!-- 4&#45;&gt;3 -->
<g id="edge8" class="edge">
<title>4&#45;&gt;3</title>
<path fill="none" stroke="grey" stroke-width="2" d="M229.63,-290.93C205.79,-281.56 173.72,-268.7 138.41,-253.39"/>
<polygon fill="grey" stroke="grey" stroke-width="2" points="140.18,-250.34 129.61,-249.55 137.37,-256.76 140.18,-250.34"/>
</g>
<!-- 12 -->
<g id="node13" class="node">
<title>12</title>
<path fill="none" stroke="#d8d356" stroke-width="2" d="M225.5,-252C225.5,-252 156.5,-252 156.5,-252 150.5,-252 144.5,-246 144.5,-240 144.5,-240 144.5,-228 144.5,-228 144.5,-222 150.5,-216 156.5,-216 156.5,-216 225.5,-216 225.5,-216 231.5,-216 237.5,-222 237.5,-228 237.5,-228 237.5,-240 237.5,-240 237.5,-246 231.5,-252 225.5,-252"/>
<text text-anchor="middle" x="191" y="-231.5" font-family="sans" font-size="10.00">phantompeakqual</text>
</g>
<!-- 4&#45;&gt;12 -->
<g id="edge17" class="edge">
<title>4&#45;&gt;12</title>
<path fill="none" stroke="grey" stroke-width="2" d="M247.07,-287.34C238.7,-279.52 228.67,-270.16 219.43,-261.53"/>
<polygon fill="grey" stroke="grey" stroke-width="2" points="222.09,-259.23 212.39,-254.97 217.32,-264.35 222.09,-259.23"/>
</g>
<!-- 14 -->
<g id="node15" class="node">
<title>14</title>
<path fill="none" stroke="#56d8c1" stroke-width="2" d="M281,-180C281,-180 251,-180 251,-180 245,-180 239,-174 239,-168 239,-168 239,-156 239,-156 239,-150 245,-144 251,-144 251,-144 281,-144 281,-144 287,-144 293,-150 293,-156 293,-156 293,-168 293,-168 293,-174 287,-180 281,-180"/>
<text text-anchor="middle" x="266" y="-159.5" font-family="sans" font-size="10.00">ataqv</text>
</g>
<!-- 4&#45;&gt;14 -->
<g id="edge20" class="edge">
<title>4&#45;&gt;14</title>
<path fill="none" stroke="grey" stroke-width="2" d="M266,-287.02C266,-263.54 266,-222.11 266,-193.64"/>
<polygon fill="grey" stroke="grey" stroke-width="2" points="269.5,-193.87 266,-183.87 262.5,-193.87 269.5,-193.87"/>
</g>
<!-- 15 -->
<g id="node16" class="node">
<title>15</title>
<path fill="none" stroke="#bed856" stroke-width="2" d="M336,-252C336,-252 306,-252 306,-252 300,-252 294,-246 294,-240 294,-240 294,-228 294,-228 294,-222 300,-216 306,-216 306,-216 336,-216 336,-216 342,-216 348,-222 348,-228 348,-228 348,-240 348,-240 348,-246 342,-252 336,-252"/>
<text text-anchor="middle" x="321" y="-231.5" font-family="sans" font-size="10.00">macs2</text>
</g>
<!-- 4&#45;&gt;15 -->
<g id="edge21" class="edge">
<title>4&#45;&gt;15</title>
<path fill="none" stroke="grey" stroke-width="2" d="M279.88,-287.34C285.7,-279.93 292.6,-271.14 299.08,-262.9"/>
<polygon fill="grey" stroke="grey" stroke-width="2" points="301.64,-265.31 305.06,-255.28 296.13,-260.98 301.64,-265.31"/>
</g>
<!-- 16 -->
<g id="node17" class="node">
<title>16</title>
<path fill="none" stroke="#68d856" stroke-width="2" d="M430.5,-108C430.5,-108 361.5,-108 361.5,-108 355.5,-108 349.5,-102 349.5,-96 349.5,-96 349.5,-84 349.5,-84 349.5,-78 355.5,-72 361.5,-72 361.5,-72 430.5,-72 430.5,-72 436.5,-72 442.5,-78 442.5,-84 442.5,-84 442.5,-96 442.5,-96 442.5,-102 436.5,-108 430.5,-108"/>
<text text-anchor="middle" x="396" y="-87.5" font-family="sans" font-size="10.00">bamcoverage_bw</text>
</g>
<!-- 4&#45;&gt;16 -->
<g id="edge22" class="edge">
<title>4&#45;&gt;16</title>
<path fill="none" stroke="grey" stroke-width="2" d="M302.37,-291.96C321.33,-283.39 343.34,-270.32 357,-252 385.83,-213.32 393.62,-156.21 395.57,-121.43"/>
<polygon fill="grey" stroke="grey" stroke-width="2" points="399.05,-122.01 395.95,-111.87 392.05,-121.73 399.05,-122.01"/>
</g>
<!-- 5 -->
<g id="node6" class="node">
<title>5</title>
<path fill="none" stroke="#56d8a2" stroke-width="2" d="M281,-396C281,-396 251,-396 251,-396 245,-396 239,-390 239,-384 239,-384 239,-372 239,-372 239,-366 245,-360 251,-360 251,-360 281,-360 281,-360 287,-360 293,-366 293,-372 293,-372 293,-384 293,-384 293,-390 287,-396 281,-396"/>
<text text-anchor="middle" x="266" y="-375.5" font-family="sans" font-size="10.00">bamfilter</text>
</g>
<!-- 5&#45;&gt;4 -->
<g id="edge9" class="edge">
<title>5&#45;&gt;4</title>
<path fill="none" stroke="grey" stroke-width="2" d="M266,-359.34C266,-352.75 266,-345.08 266,-337.67"/>
<polygon fill="grey" stroke="grey" stroke-width="2" points="269.5,-337.93 266,-327.93 262.5,-337.93 269.5,-337.93"/>
</g>
<!-- 6 -->
<g id="node7" class="node">
<title>6</title>
<path fill="none" stroke="#d89556" stroke-width="2" d="M313.5,-540C313.5,-540 218.5,-540 218.5,-540 212.5,-540 206.5,-534 206.5,-528 206.5,-528 206.5,-516 206.5,-516 206.5,-510 212.5,-504 218.5,-504 218.5,-504 313.5,-504 313.5,-504 319.5,-504 325.5,-510 325.5,-516 325.5,-516 325.5,-528 325.5,-528 325.5,-534 319.5,-540 313.5,-540"/>
<text text-anchor="middle" x="266" y="-519.5" font-family="sans" font-size="10.00">remove_blacklist_reads</text>
</g>
<!-- 6&#45;&gt;5 -->
<g id="edge11" class="edge">
<title>6&#45;&gt;5</title>
<path fill="none" stroke="grey" stroke-width="2" d="M261.42,-503.47C258.98,-493.22 256.23,-479.97 255,-468 253.37,-452.08 253.37,-447.92 255,-432 255.77,-424.52 257.13,-416.54 258.64,-409.1"/>
<polygon fill="grey" stroke="grey" stroke-width="2" points="262.03,-410 260.77,-399.48 255.19,-408.49 262.03,-410"/>
</g>
<!-- 11 -->
<g id="node12" class="node">
<title>11</title>
<path fill="none" stroke="#d8b456" stroke-width="2" d="M316,-468C316,-468 276,-468 276,-468 270,-468 264,-462 264,-456 264,-456 264,-444 264,-444 264,-438 270,-432 276,-432 276,-432 316,-432 316,-432 322,-432 328,-438 328,-444 328,-444 328,-456 328,-456 328,-462 322,-468 316,-468"/>
<text text-anchor="middle" x="296" y="-447.5" font-family="sans" font-size="10.00">index_bam</text>
</g>
<!-- 6&#45;&gt;11 -->
<g id="edge16" class="edge">
<title>6&#45;&gt;11</title>
<path fill="none" stroke="grey" stroke-width="2" d="M273.57,-503.34C276.5,-496.51 279.93,-488.5 283.21,-480.83"/>
<polygon fill="grey" stroke="grey" stroke-width="2" points="286.41,-482.25 287.14,-471.68 279.98,-479.5 286.41,-482.25"/>
</g>
<!-- 7 -->
<g id="node8" class="node">
<title>7</title>
<path fill="none" stroke="#d85656" stroke-width="2" d="M281,-612C281,-612 251,-612 251,-612 245,-612 239,-606 239,-600 239,-600 239,-588 239,-588 239,-582 245,-576 251,-576 251,-576 281,-576 281,-576 287,-576 293,-582 293,-588 293,-588 293,-600 293,-600 293,-606 287,-612 281,-612"/>
<text text-anchor="middle" x="266" y="-591.5" font-family="sans" font-size="10.00">remdup</text>
</g>
<!-- 7&#45;&gt;6 -->
<g id="edge12" class="edge">
<title>7&#45;&gt;6</title>
<path fill="none" stroke="grey" stroke-width="2" d="M266,-575.34C266,-568.75 266,-561.08 266,-553.67"/>
<polygon fill="grey" stroke="grey" stroke-width="2" points="269.5,-553.93 266,-543.93 262.5,-553.93 269.5,-553.93"/>
</g>
<!-- 8 -->
<g id="node9" class="node">
<title>8</title>
<path fill="none" stroke="#56d882" stroke-width="2" d="M281,-684C281,-684 251,-684 251,-684 245,-684 239,-678 239,-672 239,-672 239,-660 239,-660 239,-654 245,-648 251,-648 251,-648 281,-648 281,-648 287,-648 293,-654 293,-660 293,-660 293,-672 293,-672 293,-678 287,-684 281,-684"/>
<text text-anchor="middle" x="266" y="-663.5" font-family="sans" font-size="10.00">sortbam</text>
</g>
<!-- 8&#45;&gt;7 -->
<g id="edge13" class="edge">
<title>8&#45;&gt;7</title>
<path fill="none" stroke="grey" stroke-width="2" d="M266,-647.34C266,-640.75 266,-633.08 266,-625.67"/>
<polygon fill="grey" stroke="grey" stroke-width="2" points="269.5,-625.93 266,-615.93 262.5,-625.93 269.5,-625.93"/>
</g>
<!-- 9 -->
<g id="node10" class="node">
<title>9</title>
<path fill="none" stroke="#d87556" stroke-width="2" d="M281,-756C281,-756 251,-756 251,-756 245,-756 239,-750 239,-744 239,-744 239,-732 239,-732 239,-726 245,-720 251,-720 251,-720 281,-720 281,-720 287,-720 293,-726 293,-732 293,-732 293,-744 293,-744 293,-750 287,-756 281,-756"/>
<text text-anchor="middle" x="266" y="-735.5" font-family="sans" font-size="10.00">bowtie2</text>
</g>
<!-- 9&#45;&gt;8 -->
<g id="edge14" class="edge">
<title>9&#45;&gt;8</title>
<path fill="none" stroke="grey" stroke-width="2" d="M266,-719.34C266,-712.75 266,-705.08 266,-697.67"/>
<polygon fill="grey" stroke="grey" stroke-width="2" points="269.5,-697.93 266,-687.93 262.5,-697.93 269.5,-697.93"/>
</g>
<!-- 10 -->
<g id="node11" class="node">
<title>10</title>
<path fill="none" stroke="#56b1d8" stroke-width="2" d="M283.5,-828C283.5,-828 248.5,-828 248.5,-828 242.5,-828 236.5,-822 236.5,-816 236.5,-816 236.5,-804 236.5,-804 236.5,-798 242.5,-792 248.5,-792 248.5,-792 283.5,-792 283.5,-792 289.5,-792 295.5,-798 295.5,-804 295.5,-804 295.5,-816 295.5,-816 295.5,-822 289.5,-828 283.5,-828"/>
<text text-anchor="middle" x="266" y="-807.5" font-family="sans" font-size="10.00">trimgalore</text>
</g>
<!-- 10&#45;&gt;9 -->
<g id="edge15" class="edge">
<title>10&#45;&gt;9</title>
<path fill="none" stroke="grey" stroke-width="2" d="M266,-791.34C266,-784.75 266,-777.08 266,-769.67"/>
<polygon fill="grey" stroke="grey" stroke-width="2" points="269.5,-769.93 266,-759.93 262.5,-769.93 269.5,-769.93"/>
</g>
<!-- 11&#45;&gt;5 -->
<g id="edge10" class="edge">
<title>11&#45;&gt;5</title>
<path fill="none" stroke="grey" stroke-width="2" d="M288.43,-431.34C285.5,-424.51 282.07,-416.5 278.79,-408.83"/>
<polygon fill="grey" stroke="grey" stroke-width="2" points="282.02,-407.5 274.86,-399.68 275.59,-410.25 282.02,-407.5"/>
</g>
<!-- 12&#45;&gt;1 -->
<g id="edge5" class="edge">
<title>12&#45;&gt;1</title>
<path fill="none" stroke="grey" stroke-width="2" d="M179.39,-215.34C174.69,-208.18 169.13,-199.73 163.88,-191.73"/>
<polygon fill="grey" stroke="grey" stroke-width="2" points="166.84,-189.87 158.43,-183.43 160.99,-193.71 166.84,-189.87"/>
</g>
<!-- 13 -->
<g id="node14" class="node">
<title>13</title>
<path fill="none" stroke="#56d863" stroke-width="2" d="M280.5,-108C280.5,-108 231.5,-108 231.5,-108 225.5,-108 219.5,-102 219.5,-96 219.5,-96 219.5,-84 219.5,-84 219.5,-78 225.5,-72 231.5,-72 231.5,-72 280.5,-72 280.5,-72 286.5,-72 292.5,-78 292.5,-84 292.5,-84 292.5,-96 292.5,-96 292.5,-102 286.5,-108 280.5,-108"/>
<text text-anchor="middle" x="256" y="-87.5" font-family="sans" font-size="10.00">ataqv_merge</text>
</g>
<!-- 13&#45;&gt;0 -->
<g id="edge3" class="edge">
<title>13&#45;&gt;0</title>
<path fill="none" stroke="grey" stroke-width="2" d="M264.07,-71.34C267.23,-64.43 270.94,-56.31 274.49,-48.56"/>
<polygon fill="grey" stroke="grey" stroke-width="2" points="277.58,-50.2 278.56,-39.65 271.22,-47.29 277.58,-50.2"/>
</g>
<!-- 14&#45;&gt;13 -->
<g id="edge18" class="edge">
<title>14&#45;&gt;13</title>
<path fill="none" stroke="grey" stroke-width="2" d="M263.48,-143.34C262.54,-136.75 261.44,-129.08 260.38,-121.67"/>
<polygon fill="grey" stroke="grey" stroke-width="2" points="263.86,-121.3 258.99,-111.9 256.93,-122.29 263.86,-121.3"/>
</g>
<!-- 15&#45;&gt;0 -->
<g id="edge2" class="edge">
<title>15&#45;&gt;0</title>
<path fill="none" stroke="grey" stroke-width="2" d="M319.71,-215.01C317.38,-185.12 311.78,-123.43 302,-72 300.56,-64.43 298.63,-56.34 296.66,-48.82"/>
<polygon fill="grey" stroke="grey" stroke-width="2" points="300.11,-48.16 294.09,-39.44 293.36,-50.01 300.11,-48.16"/>
</g>
<!-- 15&#45;&gt;14 -->
<g id="edge19" class="edge">
<title>15&#45;&gt;14</title>
<path fill="none" stroke="grey" stroke-width="2" d="M307.12,-215.34C301.3,-207.93 294.4,-199.14 287.92,-190.9"/>
<polygon fill="grey" stroke="grey" stroke-width="2" points="290.87,-188.98 281.94,-183.28 285.36,-193.31 290.87,-188.98"/>
</g>
<!-- 16&#45;&gt;0 -->
<g id="edge4" class="edge">
<title>16&#45;&gt;0</title>
<path fill="none" stroke="grey" stroke-width="2" d="M368.47,-71.15C355.65,-62.84 340.18,-52.82 326.25,-43.79"/>
<polygon fill="grey" stroke="grey" stroke-width="2" points="328.32,-40.96 318.02,-38.46 324.51,-46.83 328.32,-40.96"/>
</g>
</g>
</svg>
